<svg width="31" height="29" viewBox="0 0 31 29" fill="none" xmlns="http://www.w3.org/2000/svg">
<path d="M17.192 16.376L17.288 15.488L16.76 16.16L11 22.664L6.488 22.664L13.784 14.744L6.464 5L10.88 5L16.328 12.536L17.192 11.672V5H20.72L20.72 22.664H17.192V16.376Z" fill="black"/>
<path d="M22.632 5.336C24.088 5.336 25.32 5.584 26.328 6.08C27.336 6.56 28.104 7.248 28.632 8.144C29.16 9.024 29.424 10.072 29.424 11.288C29.424 12.008 29.312 12.736 29.088 13.472C28.88 14.192 28.536 14.848 28.056 15.44C27.592 16.032 26.96 16.512 26.16 16.88C25.376 17.232 24.408 17.408 23.256 17.408H20.76V23H17.28V5.336H22.632ZM23.232 14.024C23.76 14.024 24.2 13.936 24.552 13.76C24.904 13.568 25.176 13.336 25.368 13.064C25.576 12.776 25.72 12.48 25.8 12.176C25.896 11.872 25.944 11.608 25.944 11.384C25.944 11.208 25.912 10.976 25.848 10.688C25.8 10.384 25.688 10.08 25.512 9.776C25.336 9.472 25.064 9.216 24.696 9.008C24.344 8.8 23.864 8.696 23.256 8.696H20.76V14.024H23.232Z" fill="black"/>
</svg>
